<svg class="bi bi-dice-5" width="16" height="16" version="1.1" viewBox="0 0 16 16" xmlns="http://www.w3.org/2000/svg">
 <path d="M13 1a2 2 0 0 1 2 2v10a2 2 0 0 1-2 2H3a2 2 0 0 1-2-2V3a2 2 0 0 1 2-2zM3 0a3 3 0 0 0-3 3v10a3 3 0 0 0 3 3h10a3 3 0 0 0 3-3V3a3 3 0 0 0-3-3z" fill="#8f8f8f"/>
 <path d="m5.5 4a1.5 1.5 0 1 1-3 0 1.5 1.5 0 0 1 3 0m8 0a1.5 1.5 0 1 1-3 0 1.5 1.5 0 0 1 3 0m0 8a1.5 1.5 0 1 1-3 0 1.5 1.5 0 0 1 3 0m-8 0a1.5 1.5 0 1 1-3 0 1.5 1.5 0 0 1 3 0m4-4a1.5 1.5 0 1 1-3 0 1.5 1.5 0 0 1 3 0" fill="#8f8f8f"/>
</svg>
