<svg class="bi bi-copy" width="16" height="16" fill="currentColor" version="1.1" viewBox="0 0 16 16" xmlns="http://www.w3.org/2000/svg">
 <path d="m4 2a2 2 0 0 1 2-2h8a2 2 0 0 1 2 2v8a2 2 0 0 1-2 2h-8a2 2 0 0 1-2-2zm2-1a1 1 0 0 0-1 1v8a1 1 0 0 0 1 1h8a1 1 0 0 0 1-1v-8a1 1 0 0 0-1-1zm-4 4a1 1 0 0 0-1 1v8a1 1 0 0 0 1 1h8a1 1 0 0 0 1-1v-1h1v1a2 2 0 0 1-2 2h-8a2 2 0 0 1-2-2v-8a2 2 0 0 1 2-2h1v1z"/>
 <g transform="translate(-.034 .44343)" stroke-width=".49997">
  <path d="m6.034 5.5566a1.9999 1.9999 0 0 1 3.7323-0.99994h3.2673a0.24999 0.24999 0 0 1 0.17699 0.072996l0.74996 0.74996a0.24999 0.24999 0 0 1 0 0.35398l-0.74996 0.74996a0.24999 0.24999 0 0 1-0.35398 0l-0.32298-0.32348-0.32298 0.32348a0.24999 0.24999 0 0 1-0.35398 0l-0.32298-0.32348-0.32298 0.32348a0.24999 0.24999 0 0 1-0.35398 0l-0.32298-0.32348-0.32298 0.32348a0.24999 0.24999 0 0 1-0.17699 0.072996h-0.26748a1.9999 1.9999 0 0 1-3.7323-0.99994m1.9999-1.4999a1.4999 1.4999 0 1 0 1.3559 2.1424 0.24999 0.24999 0 0 1 0.22549-0.14249h0.31498l0.42648-0.42698a0.24999 0.24999 0 0 1 0.35398 0l0.32298 0.32348 0.32298-0.32348a0.24999 0.24999 0 0 1 0.35398 0l0.32298 0.32348 0.32298-0.32348a0.24999 0.24999 0 0 1 0.35398 0l0.32298 0.32348 0.39648-0.39648-0.49997-0.49997h-3.3148a0.24999 0.24999 0 0 1-0.22549-0.14249 1.4999 1.4999 0 0 0-1.3559-0.85745"/>
  <path d="m8.0339 5.5566a0.49997 0.49997 0 1 1-0.99994 0 0.49997 0.49997 0 0 1 0.99994 0"/>
 </g>
</svg>
