<svg class="bi bi-copy" width="16" height="16" fill="currentColor" version="1.1" viewBox="0 0 16 16" xmlns="http://www.w3.org/2000/svg">
 <path d="m4 2a2 2 0 0 1 2-2h8a2 2 0 0 1 2 2v8a2 2 0 0 1-2 2h-8a2 2 0 0 1-2-2zm2-1a1 1 0 0 0-1 1v8a1 1 0 0 0 1 1h8a1 1 0 0 0 1-1v-8a1 1 0 0 0-1-1zm-4 4a1 1 0 0 0-1 1v8a1 1 0 0 0 1 1h8a1 1 0 0 0 1-1v-1h1v1a2 2 0 0 1-2 2h-8a2 2 0 0 1-2-2v-8a2 2 0 0 1 2-2h1v1z"/>
 <path d="m10 6a2 2 0 1 0 0-4 2 2 0 0 0 0 4m1.3333-2a1.3333 1.3333 0 1 1-2.6667 0 1.3333 1.3333 0 0 1 2.6667 0m2.6667 5.3333c0 0.66667-0.66667 0.66667-0.66667 0.66667h-6.6667s-0.66667 0-0.66667-0.66667c0-0.66667 0.66667-2.6667 4-2.6667s4 2 4 2.6667m-0.66667-0.00267c-6.66e-4 -0.164-0.10267-0.65733-0.55467-1.1093-0.43467-0.43467-1.2527-0.888-2.7787-0.888s-2.344 0.45333-2.7787 0.888c-0.452 0.452-0.55333 0.94533-0.55467 1.1093z" stroke-width=".66667"/>
</svg>
