<svg class="bi bi-copy" width="16" height="16" fill="currentColor" version="1.1" viewBox="0 0 16 16" xmlns="http://www.w3.org/2000/svg">
 <path d="m4 2c0-1.1046 0.89543-2 2-2h8c1.1046 0 2 0.89543 2 2v8c0 1.1046-0.89543 2-2 2h-8c-1.1046 0-2-0.89543-2-2zm2-1c-0.55228 0-1 0.44772-1 1v8c0 0.55228 0.44772 1 1 1h8c0.55228 0 1-0.44772 1-1v-8c0-0.55228-0.44772-1-1-1zm-4 4c-0.55228 0-1 0.44772-1 1v8c0 0.55228 0.44772 1 1 1h8c0.55228 0 1-0.44772 1-1v-1h1v1c0 1.1046-0.89543 2-2 2h-8c-1.1046 0-2-0.89543-2-2v-8c0-1.1046 0.89543-2 2-2h1v1z"/>
 <path d="m6 6.0006a4 4 0 1 1 8 0 4 4 0 0 1-8 0m3.75-3.4615c-0.335 0.102-0.6675 0.41-0.9435 0.9275q-0.1075 0.2015-0.1975 0.436c0.3525 0.0785 0.736 0.1285 1.141 0.1435zm-1.6255 1.231q0.107-0.2885 0.2405-0.539a3.5 3.5 0 0 1 0.2985-0.4665 3.5 3.5 0 0 0-1.138 0.761q0.272 0.1385 0.599 0.245zm-0.37 1.9805c0.018-0.535 0.094-1.0435 0.218-1.504a4.5 4.5 0 0 1-0.7825-0.3335 3.48 3.48 0 0 0-0.681 1.8375zm0.7-1.3705a6.15 6.15 0 0 0-0.2 1.3705h1.4955v-1.2045c-0.455-0.015-0.8915-0.0725-1.2955-0.166m1.7955 0.1655v1.205h1.495a6.15 6.15 0 0 0-0.1995-1.3705c-0.404 0.0935-0.8405 0.1505-1.2955 0.166zm-1.995 1.705c0.0175 0.4935 0.088 0.957 0.1995 1.3705a6.8 6.8 0 0 1 1.2955-0.1655v-1.205zm1.995 0v1.2045c0.455 0.015 0.8915 0.0725 1.2955 0.166 0.1115-0.4135 0.182-0.877 0.2-1.3705zm-1.641 1.848q0.09 0.2345 0.1975 0.436c0.276 0.5175 0.609 0.825 0.9435 0.9275v-1.5065c-0.405 0.015-0.7885 0.065-1.141 0.1435zm0.055 1.138a3.5 3.5 0 0 1-0.299-0.4665 4.5 4.5 0 0 1-0.2405-0.5395 4.2 4.2 0 0 0-0.599 0.245 3.5 3.5 0 0 0 1.138 0.761zm-0.6915-1.482a6.7 6.7 0 0 1-0.2185-1.504h-1.245a3.48 3.48 0 0 0 0.681 1.8375c0.235-0.129 0.4975-0.241 0.7825-0.3335m3.364 1.482a3.5 3.5 0 0 0 1.1375-0.7605 4.2 4.2 0 0 0-0.5985-0.245 4.5 4.5 0 0 1-0.2405 0.539 3.5 3.5 0 0 1-0.2985 0.4665m-1.0865-1.2815v1.507c0.335-0.102 0.6675-0.41 0.9435-0.9275q0.108-0.2015 0.1975-0.436a6.3 6.3 0 0 0-1.141-0.143zm1.7775-0.2005c0.285 0.0925 0.5475 0.2045 0.7825 0.3335a3.48 3.48 0 0 0 0.681-1.8375h-1.245a6.7 6.7 0 0 1-0.2185 1.504m1.4635-2.004a3.48 3.48 0 0 0-0.681-1.8375c-0.235 0.129-0.4975 0.241-0.7825 0.3335 0.124 0.46 0.2 0.969 0.2185 1.504zm-1.856-2.5195q0.133 0.251 0.241 0.539a4.2 4.2 0 0 0 0.598-0.245 3.5 3.5 0 0 0-1.1375-0.76c0.109 0.1415 0.209 0.2985 0.2985 0.466m-0.244 0.6715a4 4 0 0 0-0.1975-0.436c-0.276-0.5175-0.6085-0.825-0.9435-0.9275v1.5065c0.405-0.015 0.7885-0.065 1.141-0.1435z" stroke-width=".5"/>
</svg>
